# xmcd
#
# Track frame offsets: 
#        150
#        12285
#        26737
#        41700
#        53187
#        64980
#        91590
#        102287
#        115232
#        126390
#        137735
#        151507
#        166157
#        180217
#
# Disc length: 2582 seconds
#
# Revision: 0
# Processed by: cddbd v1.5.2PL0 Copyright (c) Steve Scherf et al.
# Submitted via: ExactAudioCopy v0.99pb5
#
DISCID=ac0a140e
DTITLE=Mahalia Jackson - The Golden Greats
DYEAR=1989
DGENRE=Blues
TTITLE0=Nobody Knows the Trouble I've Seen (Trad.)
TTITLE1=Go Tell It On The Mountain (Smith)
TTITLE2=Come to Jesus (Pauling)
TTITLE3=My Story (Jackson)
TTITLE4=I Believe (Stillman)
TTITLE5=In The Upper Room Pt. 1 and 2 (Trad.)
TTITLE6=Run All The Way (Smith)
TTITLE7=Shall I Meet You Over Yonder (Jackson)
TTITLE8=Beautiful Tomorrow (Smith, Jackson)
TTITLE9=The Last Mile On The Way (Curtis, Baker)
TTITLE10=Walkin' To Jerusalem (Jackson)
TTITLE11=Bless The House (Smith)
TTITLE12=I'm On My Way to Canaan (Smith)
TTITLE13=The Lord's Prayer (Trad.)
EXTD=
EXTT0=
EXTT1=
EXTT2=
EXTT3=
EXTT4=
EXTT5=
EXTT6=
EXTT7=
EXTT8=
EXTT9=
EXTT10=
EXTT11=
EXTT12=
EXTT13=
PLAYORDER=
